<?xml version="1.0" encoding="UTF-8"?>
<svg width="393px" height="392px" viewBox="0 0 393 392" version="1.1" xmlns="http://www.w3.org/2000/svg" xmlns:xlink="http://www.w3.org/1999/xlink">
    <title>logo</title>
    <defs>
        <filter id="filter-1">
            <feColorMatrix in="SourceGraphic" type="matrix" values="0 0 0 0 0.000000 0 0 0 0 0.392157 0 0 0 0 0.984314 0 0 0 1.000000 0"></feColorMatrix>
        </filter>
    </defs>
    <g id="Page-1" stroke="none" stroke-width="1" fill="none" fill-rule="evenodd">
        <g id="logo">
            <g>
                <path d="M232.756,196.855 C224.807,194.534 216.474,199.088 214.147,207.039 C208.534,226.22 192.917,240.708 173.39,244.852 C144.188,251.054 115.382,232.331 109.185,203.125 C102.988,173.919 121.706,145.116 150.912,138.919 C159.016,137.2 164.191,129.236 162.472,121.133 C160.752,113.029 152.789,107.849 144.685,109.573 C99.298,119.204 70.208,163.965 79.839,209.351 C88.226,248.876 123.249,276.039 162.132,276.039 C167.899,276.039 173.756,275.44 179.618,274.196 C209.958,267.759 234.222,245.254 242.94,215.464 C245.267,207.514 240.708,199.182 232.756,196.855 Z" id="Path" fill="#0064fb" fill-rule="nonzero"></path>
                <path d="M198.131,125.633 C169.264,137.396 149.264,163.971 145.937,194.988 C145.054,203.224 151.015,210.618 159.251,211.502 C167.489,212.386 174.882,206.425 175.766,198.188 C177.914,178.163 190.822,161.006 209.451,153.417 C237.317,142.063 269.222,155.496 280.575,183.36 C286.075,196.858 285.989,211.69 280.333,225.124 C274.678,238.558 264.129,248.984 250.632,254.483 C242.96,257.609 239.275,266.363 242.401,274.035 C244.772,279.853 250.379,283.379 256.297,283.379 C258.182,283.379 260.099,283.022 261.951,282.267 C282.87,273.744 299.218,257.583 307.983,236.765 C316.748,215.946 316.88,192.959 308.357,172.04 C290.763,128.856 241.317,108.043 198.131,125.633 Z" id="Path" fill="#0064fb" fill-rule="nonzero"></path>
                <path d="M310.724,0.929 L81.896,0.929 C36.738,0.929 0,37.667 0,82.825 L0,309.795 C0,354.952 36.738,391.691 81.896,391.691 L310.724,391.691 C355.882,391.691 392.62,354.953 392.62,309.795 L392.62,82.825 C392.62,37.667 355.881,0.929 310.724,0.929 Z M362.62,309.795 C362.62,338.41 339.34,361.691 310.724,361.691 L81.896,361.691 C53.28,361.691 30,338.41 30,309.795 L30,82.825 C30,54.209 53.28,30.929 81.896,30.929 L310.724,30.929 C339.34,30.929 362.62,54.209 362.62,82.825 L362.62,309.795 Z" id="Shape" fill="#0064fb" fill-rule="nonzero"></path>
            </g>
        </g>
    </g>
</svg>